<?xml version="1.0" encoding="UTF-8"?>
<svg id="Layer_1" xmlns="http://www.w3.org/2000/svg" version="1.1" viewBox="0 0 595.28 841.89">
  <!-- Generator: Adobe Illustrator 29.0.0, SVG Export Plug-In . SVG Version: 2.1.0 Build 186)  -->
  <defs>
    <style>
      .st0 {
        fill: #bd8454;
      }

      .st1 {
        fill: #f1451e;
      }

      .st2 {
        fill: #ebad7c;
      }

      .st3 {
        fill: #6accd6;
      }

      .st4 {
        fill: #231b0e;
      }

      .st5 {
        fill: #ef8a31;
      }

      .st6 {
        fill: #e2755e;
      }

      .st7 {
        fill: #d26147;
      }

      .st8 {
        fill: #019cd1;
      }
    </style>
  </defs>
  <path class="st4" d="M439.42,581.5C261.12,728.39.29,535.03,105.45,324.95c74.09-148.01,291.89-156.67,378.32-12.92,53.02,88.19,35.25,203.9-44.35,269.47ZM289.19,412.26c.53,0,.95-.44.95-.97v-182.37c0-4.43-15.11-1.74-18.32-1.33-35.61,4.49-71.91,19.75-100.03,41.84-43.03,33.81-71.62,88.22-72.03,143.38,0,.39.21.75.57.9,2.59,1.09,12.06.61,14.46.53,44.08-1.45,88.7-1.17,132.84-2.03,13.83-.27,27.72.26,41.55.06ZM308.13,411.85c0,.25.11.5.28.68.59.59.98.91,2.11.77,37.5-.12,75.01-.02,112.49-.05,16.22-.01,33.7-1.66,49.49-1.04,2.99.12,19.27,2.39,23.48,2.23.54-.02.95-.47.93-1.01-3.47-83.16-59.09-155.01-138.84-178.5-11.08-3.26-38.3-9.88-48.95-8.49-.72.09-2.13-.49-2.02.6l1.02,184.83ZM289.22,613.09c.52-.02.93-.45.93-.97v-180.39c0-3.2-15.9.42-18.44.54-47.49,2.29-101.26,1.63-148.94,0-7.25-.25-14.8-3.37-22.02-.9-.13.04-.26.11-.36.21-2.74,2.78,1.38,22.66,2.23,26.84,10.83,53.34,43.51,99.88,90.32,127.47,28.61,16.87,62.65,28.58,96.28,27.21ZM310.13,432.23c-.88.25-2.73-.66-3.05.55l.05,180.29c0,.54.45.97.99.96,3.65-.08,7.37.25,11,.03,12.5-.76,26.89-4.07,38.96-7.49,77.95-22.08,133.69-92.46,138.81-173.3.04-.56-.41-1.03-.97-1.03-50.95.36-101.87-1.32-152.82-1-9.45.06-24.57-1.34-32.97,1Z"/>
  <path class="st8" d="M290.14,411.29c0,.53-.42.96-.95.97-13.83.21-27.71-.33-41.55-.06-44.14.86-88.76.58-132.84,2.03-2.4.08-11.87.56-14.46-.53-.36-.15-.57-.51-.57-.9.41-55.16,29-109.57,72.03-143.38,28.11-22.09,64.42-37.35,100.03-41.84,3.21-.4,18.32-3.1,18.32,1.33v182.37Z"/>
  <path class="st1" d="M309.13,227.29c0-.51.39-.92.9-.96,11.21-.93,37.27,5.41,48.05,8.59,79.75,23.49,135.36,95.34,138.84,178.5.02.54-.39.99-.93,1.01-4.21.17-20.49-2.11-23.48-2.23-15.64-.61-32.92.99-49,1.04-.31,0-.59-.16-.79-.4-1.31-1.62-3.24-1.51-5.16-1.64-34.8-2.42-72.39,1.85-107.52.09-.51-.03-.92-.45-.92-.97v-183.03Z"/>
  <path class="st3" d="M290.14,612.12c0,.52-.41.95-.93.97-33.63,1.37-67.67-10.35-96.28-27.21-46.8-27.59-79.49-74.13-90.32-127.47-.85-4.18-4.97-24.06-2.23-26.84.1-.1.23-.16.36-.21,7.22-2.47,14.77.66,22.02.9,47.68,1.63,101.45,2.29,148.94,0,2.54-.12,18.44-3.74,18.44-.54v180.39Z"/>
  <path class="st5" d="M343.74,431.22c50.74-.3,101.44,1.36,152.17,1.01.56,0,1.01.47.97,1.03-5.12,80.84-60.86,151.22-138.81,173.3-11.77,3.33-25.73,6.57-38.01,7.43-.47.03-.89-.28-.99-.73-.63-2.82-6.91-.42-9.08-1.23-.16-.06-.29-.19-.39-.33l-1.32-1.89c-.11-.16-.17-.35-.17-.55l.44-173.78c0-.22.08-.44.22-.61l1.06-1.3c.18-.21.43-.35.71-.36,9.26-.4,18.87.61,28.09.08,1.7-.1,3.42.17,4.23-1.52.16-.33.49-.54.85-.54Z"/>
  <path class="st7" d="M419.47,411.33c1.2.12,1.08,1.92-.12,1.92-36.26.02-72.55-.07-108.82.05-.8.1-1.23-.03-1.62-.32-.46-.34-.48-1.03-.08-1.43h0c.19-.19.45-.29.72-.28,35.27,1.82,73.05-2.5,108.01-.07.64.04,1.28.06,1.9.13Z"/>
  <path class="st2" d="M310.13,432.23v1l-1.34,1.64c-.14.17-.22.39-.22.61l-.44,173.78c0,.2.06.39.17.55l1.32,1.89c.1.14.23.27.39.33,1.9.72,7-1.07,8.62.43.62.57.2,1.62-.64,1.65-3.27.1-6.6-.15-9.87-.08-.54.01-.99-.41-.99-.96l-.05-180.29c.32-1.21,2.17-.31,3.05-.55Z"/>
  <path class="st6" d="M309.13,227.34v183.51c0,.26-.1.5-.28.68l-.72.72-1.02-185.22c-.08-.73.52-.71,1.15-.64.49.05.87.46.87.96Z"/>
  <path class="st0" d="M340.87,431.22c1.15.01,1.32,1.69.18,1.91-.73.14-1.57.11-2.4.15-9.36.54-19.13-.51-28.53-.06v-1c7.77-2.16,21.28-1.13,30.74-1.01Z"/>
</svg>