<?xml version="1.0" encoding="UTF-8"?>
<svg id="Layer_1" xmlns="http://www.w3.org/2000/svg" version="1.1" viewBox="0 0 595.28 841.89">
  <!-- Generator: Adobe Illustrator 29.0.0, SVG Export Plug-In . SVG Version: 2.1.0 Build 186)  -->
  <defs>
    <style>
      .st0 {
        fill: #0c0d1f;
      }

      .st1 {
        fill: #090c1d;
      }

      .st2 {
        fill: #0f1022;
      }

      .st3 {
        fill: #0a0d20;
      }

      .st4 {
        fill: #0a0b20;
      }

      .st5 {
        fill: #0c0c20;
      }

      .st6 {
        fill: #0c0e20;
      }

      .st7 {
        fill: #0a0d1f;
      }
    </style>
  </defs>
  <path class="st3" d="M290.26,443.89c-1.41.17-7,.27-7-1.5v-18c0-2.63-8-2.63-8,0v18c0,1.77-5.59,1.67-7,1.5v-18.5c0-4.7-9-3.01-9-1v19.5h-7v-27c5.3,1.37,12.74-.93,17.48.02,2.19.44,3.46,2.82,4.01,2.83.37,0,2.47-2.23,4.22-2.64,4.24-1,12.29-.27,12.29,5.29v21.5Z"/>
  <path class="st7" d="M322.26,405.89h7.01s0,13,0,13c4-3.27,12.86-3.94,15.25,1.24,1.1,2.38,2.33,19.89,1.59,22.13-.82,2.5-4.7,1.52-6.86,1.64v-18.5c0-4.78-10-3.58-10-1v19.5h-7v-38Z"/>
  <path class="st0" d="M414.26,426.88c-6.68,2.35-7.18-4.91-11.59-4.99-8.77-.15-7.25,20.64,2.33,16.35,2.24-1.01,3.12-5.4,9.25-3.35-.34,11.69-20.47,12.09-23.55,2.05-1.59-5.19-.78-15.86,4.45-18.65,7.98-4.26,19.17-1.75,19.11,8.59Z"/>
  <rect class="st2" x="241.26" y="407.89" width="7" height="36"/>
  <path class="st5" d="M374.26,416.89c1.98.26,4.53-.46,6.34,0,.8.2.59,2.03,1.16,2.03,2.24,0,5.19-5.17,8.04-2.05.79.96-.41,5.66-.68,5.88-.38.31-7.86.31-7.86,2.64v18.5c-1.41.17-7,.27-7-1.5v-25.5Z"/>
  <path class="st1" d="M309.76,418.52c-1.03.02-3.45-2.78-6.76-2.43-12.59,1.33-15.24,28.19,1.79,27.87,3.65-.07,9.44-3.45,5.26,3.21-4.03,6.42-12.31-3.39-12.78,7.71,4.85,1.39,12.61,2.12,16.68-1.31.21-.18,3.31-3.91,3.31-4.18v-32.5c-2.69-1.38-6.54,1.61-7.5,1.63ZM306.72,438.91c-8.44.82-8.84-15.78-1.73-16.86,7.87-1.19,6.93,16.35,1.73,16.86Z"/>
  <path class="st6" d="M442.31,429.44c.04-17.01-23.65-17.8-25.06-1.05-1.27,15.06,12.47,19.32,24.01,12.47-2.67-8.61-5.6-2.57-9.74-2.16-3.65.36-6.08-2.73-7.25-5.82h16.5c1.03,0,1.55-2.34,1.55-3.45ZM435.25,427.88c-4.17-.75-11.75,2.47-9.8-3.3,1.12-3.31,6.7-3.54,8.55-1.43.45.51,1.43,4.56,1.25,4.73Z"/>
  <path class="st4" d="M353.55,417.68c-7.71,3.8-8.23,17.05-2.98,22.91,4.38,4.89,14.96,4.48,19.15-.74,9.24-11.5-1.94-29.18-16.17-22.17ZM362.57,437.69c-14.69,4.49-7.99-23.43,1.44-14.53,3.09,2.92,3.4,13.05-1.44,14.53Z"/>
</svg>